<?xml version="1.0" standalone="no"?>
<!DOCTYPE svg PUBLIC "-//W3C//DTD SVG 20010904//EN"
 "http://www.w3.org/TR/2001/REC-SVG-20010904/DTD/svg10.dtd">
<svg version="1.0" xmlns="http://www.w3.org/2000/svg"
 width="256.000000pt" height="256.000000pt" viewBox="0 0 256.000000 256.000000"
 preserveAspectRatio="xMidYMid meet">
<metadata>
Created by potrace 1.15, written by Peter Selinger 2001-2017
</metadata>
<g transform="translate(0.000000,256.000000) scale(0.100000,-0.100000)"
fill="#000000" stroke="none">
<path d="M835 2001 c-49 -30 -68 -58 -73 -109 -8 -89 50 -155 139 -156 112 -2
180 120 121 217 -40 63 -127 86 -187 48z"/>
<path d="M1089 1953 c21 -41 13 -132 -14 -179 -43 -73 -137 -113 -219 -94 -38
8 -31 1 135 -166 l174 -174 273 2 272 3 -316 315 c-174 173 -311 305 -305 293z"/>
<path d="M730 1490 c-19 -19 -20 -33 -20 -423 l0 -402 325 -325 324 -324 108
16 c277 42 503 157 704 357 112 113 186 216 248 346 39 81 76 183 70 190 -2 2
-105 105 -228 229 -179 180 -230 226 -251 226 -42 0 -61 -21 -67 -73 -5 -43
-7 -46 -22 -33 -15 13 -16 5 -13 -100 l3 -114 -385 0 -386 0 0 108 c0 96 -2
111 -20 127 -20 18 -20 17 -20 -19 0 -51 -44 -96 -94 -96 -55 0 -99 44 -99 98
0 27 7 50 19 63 17 19 16 21 -56 94 -80 80 -105 90 -140 55z m358 -342 c7 -7
12 -24 12 -38 0 -43 -17 -50 -115 -50 -98 0 -115 7 -115 50 0 43 17 50 115 50
57 0 95 -4 103 -12z"/>
</g>
</svg>
